<?xml version="1.0" encoding="UTF-8"?>
<svg width="296px" height="51px" viewBox="0 0 296 51" version="1.1" xmlns="http://www.w3.org/2000/svg" xmlns:xlink="http://www.w3.org/1999/xlink">
    <!-- Generator: Sketch 59.1 (86144) - https://sketch.com -->
    <title>Group 2</title>
    <desc>Created with Sketch.</desc>
    <g id="Page-1" stroke="none" stroke-width="1" fill="none" fill-rule="evenodd">
        <g id="43722_maferland_Logo_K" transform="translate(-68.000000, -255.000000)" fill="#FFFFFE">
            <g id="Group-2" transform="translate(68.000000, 255.000000)">
                <path d="M111.584343,12.7870084 C110.324363,12.2585064 108.849677,12 107.160285,12 C105.29574,12 103.592224,12.382015 102.072337,13.154662 C100.693703,13.849757 99.5269497,14.8579319 98.5579511,16.1303579 C97.7415062,14.9326116 96.6340793,13.9502872 95.227195,13.223597 C93.6536317,12.4078657 91.9105643,12 90.0149431,12 C88.3792283,12 86.8988923,12.2872293 85.5852353,12.8645603 C84.54561,13.321255 83.6189874,13.9617764 82.7968924,14.7717631 L82.7968924,12.4969068 L79,12.4969068 L79,38 L82.7968924,38 L82.7968924,25.5859479 C82.7968924,23.4518338 82.8759943,21.9524967 83.0228979,21.1367654 C83.1726266,20.3095449 83.4297078,19.5799823 83.7884916,18.9452055 C84.3789309,17.9197967 85.1699502,17.1442775 86.1841499,16.5956695 C87.1955245,16.0499337 88.3792283,15.7713213 89.7493867,15.7713213 C92.0348673,15.7741935 93.6479816,16.4233319 94.7017322,17.6813964 C95.7583079,18.9394609 96.3233217,20.9558109 96.3233217,23.7620415 L96.3233217,38 L99.9874359,38 L99.9874359,25.5859479 C99.9874359,23.4518338 100.069363,21.9524967 100.224742,21.1396376 C100.38012,20.3095449 100.634377,19.5799823 100.98186,18.9423332 C101.572299,17.9169244 102.354844,17.1414052 103.354918,16.5956695 C104.352167,16.0499337 105.510445,15.7713213 106.849528,15.7713213 C108.019106,15.7713213 109.010706,15.9407866 109.824325,16.268228 C110.64077,16.5927972 111.282061,17.0724702 111.773623,17.7129916 C112.753922,18.9882899 113.296335,21.2487848 113.290685,24.4829872 L113.290685,38 L117,38 L117,25.1349978 C116.997175,20.6226248 116.248532,17.3022536 114.666493,15.1738842 C113.875474,14.114008 112.841499,13.3126381 111.584343,12.7870084" id="Fill-48"></path>
                <path d="M134.238192,15.5832322 C136.582783,15.5860294 138.62892,16.4839307 140.454085,18.3356773 C142.270641,20.1902211 143.163135,22.3160933 143.166005,24.7916155 C143.163135,27.4629418 142.267771,29.7062965 140.462694,31.6000011 C138.646138,33.4909085 136.568435,34.4111874 134.14636,34.4139846 C131.626714,34.4111874 129.505964,33.5356637 127.700887,31.7482527 C125.907289,29.9580445 125.017664,27.7958087 125.014794,25.1860208 C125.017664,22.4391701 125.913028,20.1818295 127.715235,18.3356773 C129.526052,16.4895251 131.67263,15.5860294 134.238192,15.5832322 Z M143.166005,15.7454698 C142.201767,14.6629533 141.059604,13.793024 139.730906,13.1636539 C138.086536,12.3860322 136.281459,11.9972214 134.327155,12 C130.539076,11.9944242 127.339297,13.2503671 124.808172,15.7454698 C122.274177,18.2321809 120.997135,21.3650452 121,25.0545524 C120.997135,28.6853184 122.245479,31.7818191 124.727819,34.2629357 C127.204419,36.7496468 130.343933,38.0027925 134.057398,38 C136.057618,38 137.934439,37.5916041 139.670642,36.780416 C141.065343,36.1286683 142.227595,35.2615362 143.166005,34.2041945 L143.166005,37.3622337 L147,37.3622337 L147,12.5258923 L143.166005,12.5258923 L143.166005,15.7454698 L143.166005,15.7454698 Z" id="Fill-49"></path>
                <path d="M155.151261,6.9373941 C153.761905,8.2569468 153.095238,10.2614368 153.095238,12.8725856 L153.095238,13.1773128 L150,13.1773128 L150,16.5824297 L153.226891,16.5824297 L153.226891,38 L156.94958,38 L156.94958,16.5824297 L162,16.5824297 L162,13.1773128 L156.904762,13.1773128 L156.904762,12.8725856 C156.904762,11.211962 157.282913,10.110471 157.943978,9.50660793 C158.602241,8.89435784 159.831933,8.51973907 161.64986,8.49457811 L162,8.48898678 L162,5 L161.358543,5 C158.630252,5 156.540616,5.62343273 155.151261,6.9373941" id="Fill-50"></path>
                <path d="M170.94862,17.9060694 C172.527979,16.4634547 174.430003,15.7479178 176.722621,15.7450326 C179.204876,15.7450326 181.169169,16.4201763 182.680599,17.7531523 C184.104286,19.0111123 185.117567,20.8720852 185.71761,23.3591529 L168.121057,23.3591529 C168.528634,21.071166 169.465494,19.2650125 170.94862,17.9060694 Z M177.189636,12 C173.368606,11.9971196 170.181583,13.2752763 167.71065,15.8200486 C165.239717,18.3590504 163.997174,21.6049335 164,25.4682556 C163.997174,29.1728902 165.268021,32.3841505 167.787071,35.0212501 C170.30046,37.6670055 173.419553,39.0057519 177.056608,39 C179.796428,39.0028667 182.236227,38.2411661 184.333548,36.7235354 C186.428039,35.2030196 188.049854,33.0275566 189.196163,30.2231136 L189.402782,29.7153133 L185.083602,29.7153133 L184.987369,29.925935 C184.211841,31.5993681 183.127801,32.8890656 181.721095,33.8209947 C180.31156,34.7500385 178.737861,35.2116752 176.966035,35.2145605 C174.452646,35.2116752 172.400611,34.4124667 170.73351,32.8082792 C169.156981,31.2848781 168.254086,29.3229221 168.002181,26.8762476 L190,26.8762476 L190,26.2732346 C190.002825,22.0838816 188.81406,18.6273768 186.430869,15.9816214 C184.053339,13.3329808 180.939907,11.9971196 177.189636,12 L177.189636,12 Z" id="Fill-51"></path>
                <path d="M202.626016,12.008659 C201.417344,12.0404085 200.344173,12.3232682 199.417344,12.8687833 C198.737127,13.2699822 198.105691,13.8385879 197.517615,14.5572824 L197.517615,12.3723357 L194,12.3723357 L194,38 L197.728997,38 L197.728997,22.607238 C197.726287,20.3559059 198.135501,18.7828597 198.867209,17.8765542 C199.598916,16.9587034 200.848238,16.3814387 202.685637,16.205373 L203,16.1736234 L202.97561,12 L202.626016,12.008659" id="Fill-52"></path>
                <polygon id="Fill-53" points="206 38 210 38 210 5 206 5"></polygon>
                <path d="M227.238192,15.5832322 C229.582783,15.5860294 231.62892,16.4839307 233.454085,18.3356773 C235.270641,20.1902211 236.163135,22.3160933 236.166005,24.7916155 C236.163135,27.4629418 235.270641,29.7062965 233.462694,31.6000011 C231.646138,33.4909085 229.568435,34.4111874 227.14636,34.4139846 C224.626714,34.4111874 222.505964,33.5356637 220.700887,31.7482527 C218.907289,29.9580445 218.017664,27.7958087 218.014794,25.1860208 C218.017664,22.4391701 218.913028,20.1818295 220.715235,18.3356773 C222.528922,16.4895251 224.67263,15.5860294 227.238192,15.5832322 Z M236.166005,15.7454698 C235.201767,14.6629533 234.059604,13.793024 232.730906,13.1636539 C231.086536,12.3860322 229.281459,11.9972214 227.327155,12 C223.541946,11.9944242 220.339297,13.2503671 217.808172,15.7454698 C215.274177,18.2321809 213.997135,21.3650452 214,25.0545524 C213.997135,28.6853184 215.245479,31.7818191 217.727819,34.2629357 C220.204419,36.7496468 223.343933,38.0027925 227.057398,38 C229.057618,38 230.934439,37.5916041 232.670642,36.780416 C234.065343,36.1286683 235.227595,35.2615362 236.166005,34.2041945 L236.166005,37.3622337 L240,37.3622337 L240,12.5258923 L236.166005,12.5258923 L236.166005,15.7454698 L236.166005,15.7454698 Z" id="Fill-54"></path>
                <path d="M264.375737,16.0872735 L264.375737,16.0844012 C263.531233,14.7688909 262.374263,13.7492267 260.930161,13.0483871 C259.486059,12.3475475 257.842091,12 256.017962,12 C254.362735,12 252.873592,12.2786125 251.564611,12.8387097 C250.520241,13.2867875 249.580027,13.9387981 248.738338,14.7717631 L248.738338,12.4969068 L245,12.4969068 L245,38 L248.738338,38 L248.738338,25.5859479 C248.738338,23.4518338 248.817158,21.9524967 248.966354,21.1367654 C249.112735,20.3095449 249.368901,19.5799823 249.729223,18.9452055 C250.314745,17.9197967 251.102949,17.1442775 252.113539,16.5956695 C253.121314,16.0499337 254.300804,15.7713213 255.666086,15.7713213 C258.022252,15.7741935 259.64933,16.4118427 260.657105,17.6239505 C261.667694,18.8389306 262.219437,20.8782589 262.216622,23.7620415 L262.216622,38 L266,38 L266,24.68692 C266,22.3460009 265.878954,20.5680513 265.628418,19.3300928 C265.377882,18.0978789 264.96126,17.0150243 264.375737,16.0872735" id="Fill-55"></path>
                <path d="M292.163138,25.9103257 C292.160268,28.4362519 291.270644,30.6135774 289.451219,32.5165942 C287.626055,34.4138963 285.57992,35.3339735 283.23533,35.3368308 C280.669769,35.3339735 278.526062,34.4081815 276.715246,32.5165942 C274.910171,30.6221496 274.017677,28.3133845 274.011937,25.5074348 C274.017677,22.8557837 274.904431,20.6555992 276.698028,18.8268743 C278.503104,17.0010068 280.623853,16.1037887 283.146367,16.1009313 C285.565571,16.1037887 287.646143,17.0410102 289.459828,18.966886 C291.267774,20.8927619 292.160268,23.1815254 292.163138,25.9103257 Z M292.074175,5 L292.074175,16.2580874 C291.061152,15.1379934 289.884552,14.2436326 288.532897,13.6064363 C286.882788,12.8263709 285.051885,12.4377669 283.054535,12.4406242 C279.341072,12.4349095 276.20156,13.7178742 273.724962,16.2580874 C271.242624,18.7925857 269.99428,21.9471361 270,25.6417318 C269.99428,29.3649013 271.259842,32.5537402 273.768008,35.1253845 C276.273304,37.6998862 279.398467,39.0028527 283.054535,39 C284.951443,39 286.753649,38.6028191 288.452544,37.8113242 C289.847245,37.1626983 291.049673,36.2854819 292.074175,35.211106 L292.074175,38.3485121 L296,38.3485121 L296,5 L292.074175,5 L292.074175,5 Z" id="Fill-56"></path>
                <polyline id="Fill-57" points="17.2937165 33.2973248 9.38059034 25.3633121 25 9.70267516 20.3097048 5 0 25.3633121 12.6034213 38 17.2937165 33.2973248"></polyline>
                <polyline id="Fill-58" points="54.3965787 13 49.7062835 17.7030746 57.6194097 25.6377612 42 41.2997282 46.6902952 46 67 25.6377612 54.3965787 13"></polyline>
                <polyline id="Fill-59" points="12.7816953 51 59 4.78169526 54.2183047 0 8 46.2183047 12.7816953 51"></polyline>
            </g>
        </g>
    </g>
</svg>